<svg width="44" height="44" viewBox="0 0 44 44" fill="none" xmlns="http://www.w3.org/2000/svg">
<path fill-rule="evenodd" clip-rule="evenodd" d="M11.3334 18.9444C9.5408 18.9444 9.16669 19.2962 9.16669 20.9814V24.037C9.16669 25.7224 9.5408 26.0741 11.3334 26.0741H15.6667V38.2963C15.6667 39.9815 16.0408 40.3334 17.8333 40.3334H22.1667C23.9593 40.3334 24.3333 39.9815 24.3333 38.2963V26.0741H29.199C30.5586 26.0741 30.9089 25.8256 31.2824 24.5968L32.211 21.5411C32.8506 19.4359 32.4564 18.9444 30.1276 18.9444H24.3333V13.8519C24.3333 12.7269 25.3033 11.8148 26.4999 11.8148H32.6667C34.4592 11.8148 34.8334 11.4631 34.8334 9.77779V5.70372C34.8334 4.01841 34.4592 3.66669 32.6667 3.66669H26.4999C20.5169 3.66669 15.6667 8.22676 15.6667 13.8519V18.9444H11.3334Z" stroke="black" stroke-width="1.5" stroke-linejoin="round"/>
</svg>
