<svg width="44" height="44" viewBox="0 0 44 44" fill="none" xmlns="http://www.w3.org/2000/svg">
<path d="M18.3333 37.7071C12.0476 39.8288 6.80949 37.7071 3.66663 31.1667" stroke="black" stroke-width="1.5" stroke-linecap="round" stroke-linejoin="round"/>
<path d="M18.3333 40.3334V34.3895C18.3333 33.2926 18.6704 32.3393 19.214 31.4782C19.5869 30.8873 19.3315 30.0491 18.658 29.8639C13.0788 28.3302 9.16663 25.8641 9.16663 17.6845C9.16663 15.5579 9.86338 13.5585 11.0882 11.8184C11.393 11.3853 11.5454 11.1688 11.582 10.9727C11.6186 10.7766 11.5549 10.5206 11.4275 10.0088C10.909 7.92537 10.9426 5.71303 11.7209 3.71844C11.7209 3.71844 13.3291 3.19445 16.9894 5.48112C17.8251 6.00321 18.243 6.26426 18.611 6.32265C18.979 6.38104 19.4711 6.25872 20.455 6.0141C21.8007 5.67959 23.1872 5.50002 24.75 5.50002C26.3127 5.50002 27.6992 5.67959 29.0449 6.0141C30.0289 6.25872 30.5209 6.38104 30.8889 6.32265C31.257 6.26426 31.6748 6.00321 32.5105 5.48112C36.1709 3.19445 37.7791 3.71844 37.7791 3.71844C38.5573 5.71303 38.5909 7.92537 38.0724 10.0088C37.945 10.5206 37.8812 10.7766 37.9179 10.9727C37.9545 11.1688 38.1069 11.3854 38.4118 11.8184C39.6364 13.5585 40.3333 15.5579 40.3333 17.6845C40.3333 25.8641 36.4211 28.3302 30.8419 29.8639C30.1684 30.0491 29.913 30.8873 30.2859 31.4782C30.8295 32.3393 31.1666 33.2926 31.1666 34.3895V40.3334" stroke="black" stroke-width="1.5" stroke-linecap="round" stroke-linejoin="round"/>
</svg>
