<svg width="44" height="44" viewBox="0 0 44 44" fill="none" xmlns="http://www.w3.org/2000/svg">
<path d="M4.58337 22C4.58337 13.7897 4.58337 9.68454 7.13398 7.13392C9.68461 4.58331 13.7898 4.58331 22 4.58331C30.2103 4.58331 34.3155 4.58331 36.8662 7.13392C39.4167 9.68454 39.4167 13.7897 39.4167 22C39.4167 30.2102 39.4167 34.3154 36.8662 36.8661C34.3155 39.4166 30.2103 39.4166 22 39.4166C13.7898 39.4166 9.68461 39.4166 7.13398 36.8661C4.58337 34.3154 4.58337 30.2102 4.58337 22Z" stroke="black" stroke-width="1.5" stroke-linejoin="round"/>
<path d="M30.25 22C30.25 26.5564 26.5564 30.25 22 30.25C17.4437 30.25 13.75 26.5564 13.75 22C13.75 17.4437 17.4437 13.75 22 13.75C26.5564 13.75 30.25 17.4437 30.25 22Z" stroke="black" stroke-width="1.5"/>
<path d="M32.0984 11.9167H32.0812" stroke="black" stroke-width="2" stroke-linecap="round" stroke-linejoin="round"/>
</svg>
